HIERARCHY
ROOT Hips
{
	OFFSET 0.000000 0.000000 0.000000 
	CHANNELS 6 Xposition Yposition Zposition Zrotation Yrotation Xrotation
	JOINT LeftUpLeg
	{
		OFFSET 1.363060 -1.794630 0.839290 
		CHANNELS 3 Zrotation Yrotation Xrotation
		JOINT LeftLeg
		{
			OFFSET 2.448110 -6.726130 0.000000 
			CHANNELS 3 Zrotation Yrotation Xrotation
			JOINT LeftFoot
			{
				OFFSET 2.562200 -7.039590 0.000000 
				CHANNELS 3 Zrotation Yrotation Xrotation
				JOINT LeftToeBase
				{
					OFFSET 0.157640 -0.433110 2.322550 
					CHANNELS 3 Zrotation Yrotation Xrotation
					End Site
					{
						OFFSET 0.000000 0.000000 0.000000 
					}
				}
			}
		}
	}
	JOINT RightUpLeg
	{
		OFFSET -1.305520 -1.794630 0.839290 
		CHANNELS 3 Zrotation Yrotation Xrotation
		JOINT RightLeg
		{
			OFFSET -2.542530 -6.985550 0.000000 
			CHANNELS 3 Zrotation Yrotation Xrotation
			JOINT RightFoot
			{
				OFFSET -2.568260 -7.056230 0.000000 
				CHANNELS 3 Zrotation Yrotation Xrotation
				JOINT RightToeBase
				{
					OFFSET -0.164730 -0.452590 2.363150 
					CHANNELS 3 Zrotation Yrotation Xrotation
					End Site
					{
						OFFSET 0.000000 0.000000 0.000000 
					}
				}
			}
		}
	}
	JOINT Spine
	{
		OFFSET 0.028270 2.035590 -0.193380 
		CHANNELS 3 Zrotation Yrotation Xrotation
		JOINT Spine1
		{
			OFFSET 0.056720 2.048850 -0.042750 
			CHANNELS 3 Zrotation Yrotation Xrotation
			JOINT Neck1
			{
				OFFSET -0.054170 1.746240 0.172020 
				CHANNELS 3 Zrotation Yrotation Xrotation
				JOINT Head
				{
					OFFSET 0.104070 1.761360 -0.123970 
					CHANNELS 3 Zrotation Yrotation Xrotation
					End Site
					{
						OFFSET 0.000000 0.000000 0.000000 
					}
				}
			}
			JOINT LeftArm
			{
				OFFSET 3.362410 1.200890 -0.311210 
				CHANNELS 3 Zrotation Yrotation Xrotation
				JOINT LeftForeArm
				{
					OFFSET 4.983000 -0.000000 -0.000000 
					CHANNELS 3 Zrotation Yrotation Xrotation
					JOINT LeftHand
					{
						OFFSET 3.483560 -0.000000 -0.000000 
						CHANNELS 3 Zrotation Yrotation Xrotation
						JOINT LeftHandIndex1
						{
							OFFSET 0.715260 -0.000000 -0.000000 
							CHANNELS 3 Zrotation Yrotation Xrotation
							End Site
							{
								OFFSET 0.000000 0.000000 0.000000 
							}
						}
					}
				}
			}
			JOINT RightArm
			{
				OFFSET -3.136600 1.374050 -0.404650 
				CHANNELS 3 Zrotation Yrotation Xrotation
				JOINT RightForeArm
				{
					OFFSET -5.241900 -0.000000 -0.000000 
					CHANNELS 3 Zrotation Yrotation Xrotation
					JOINT RightHand
					{
						OFFSET -3.444170 -0.000000 -0.000000 
						CHANNELS 3 Zrotation Yrotation Xrotation
						JOINT RightHandIndex1
						{
							OFFSET -0.622530 -0.000000 -0.000000 
							CHANNELS 3 Zrotation Yrotation Xrotation
							End Site
							{
								OFFSET 0.000000 0.000000 0.000000 
							}
						}
					}
				}
			}
		}
	}
}
MOTION
Frames: 7
Frame Time: 0.041667
-28.229863 16.335078 -3.788309 4.681093 9.833921 17.607941 -10.635705 10.468800 -47.053605 18.762620 21.586036 85.604781 0.120530 -0.316243 1.421077 2.251100 -9.370500 -26.961400 19.119943 -4.039351 -13.958442 -5.686905 -15.460333 47.744325 -4.619453 12.318500 -10.955791 -0.424200 4.180300 -11.584500 -0.359733 3.315088 -1.917054 -0.167950 1.392619 2.224783 4.698180 -6.790160 -1.719613 8.185400 -0.441100 -3.953700 -54.980364 -26.709939 2.955978 16.391334 -28.497055 -7.907487 -1.218290 -3.046448 -14.102507 -7.125000 0.000000 0.000000 77.817745 21.497336 33.945690 -27.538020 38.717409 -12.894959 0.713412 -0.820214 -27.608146 7.125000 0.000000 0.000000 
-28.117620 16.400856 -3.315366 4.634155 9.668906 18.138609 -10.350023 9.075076 -49.045865 17.650640 21.684712 82.434529 0.314369 -1.132170 1.641068 1.970600 -8.804700 -25.186200 18.504571 -5.034013 -12.384691 -4.750207 -14.555365 44.690013 -4.703327 13.666207 -7.867795 -0.367500 3.894000 -10.778700 -0.471598 3.758899 -1.959477 -1.057264 1.780076 1.937319 4.664682 -7.664567 -1.394862 8.446500 -0.861900 -3.815800 -55.668213 -24.812007 3.563751 18.510619 -30.800708 -9.257323 -0.748780 -3.212162 -18.115589 -7.125000 0.000000 0.000000 78.076836 19.842181 34.621602 -28.056187 39.390804 -13.241544 0.683692 -0.840553 -27.025351 7.125000 0.000000 0.000000 
-28.006173 16.421078 -2.853444 4.685737 9.534795 18.534421 -9.864247 7.400769 -50.746320 16.436154 21.745915 79.023427 0.486344 -1.859765 2.240123 1.605400 -7.990700 -22.685700 17.845603 -6.012714 -10.234415 -3.758864 -13.470821 41.290862 -4.508105 13.078429 -5.743165 -0.605000 4.978700 -13.847900 -0.560352 4.060571 -2.003191 -1.761329 2.050770 1.736899 4.454953 -8.223031 -0.878983 8.373400 -1.251000 -3.482000 -56.205618 -22.783524 3.418394 20.609460 -32.932095 -10.713815 -0.301807 -3.259259 -22.396462 -7.125000 0.000000 0.000000 78.842699 18.272810 34.542610 -28.376006 39.868281 -13.490545 0.607124 -0.892824 -24.507031 7.125000 0.000000 0.000000 
-27.914493 16.500034 -2.341535 4.669672 9.362093 18.812819 -9.299384 5.925755 -51.582657 14.883905 21.641530 74.704526 0.671526 -2.523526 2.912053 1.367300 -7.400500 -20.907500 17.250477 -6.478019 -8.189069 -2.843935 -12.434302 38.227023 -4.598786 14.837363 -1.639438 -0.194900 2.843000 -7.842000 -0.597089 4.391617 -2.043653 -1.852526 2.251863 1.600470 4.205277 -8.444587 -0.291520 8.150800 -1.522900 -3.123900 -57.316304 -20.309911 2.863220 22.918160 -35.176039 -12.504329 0.128804 -3.240095 -26.658352 -7.125000 0.000000 0.000000 79.538411 16.612732 33.904837 -28.571525 40.197533 -13.695267 0.497021 -0.936794 -20.428990 7.125000 0.000000 0.000000 
-27.821790 16.562177 -1.818947 4.725952 9.015481 19.257826 -8.714290 4.282874 -52.202982 13.198966 21.408398 70.076708 0.839620 -3.061662 3.896819 1.241600 -7.065500 -19.909700 16.506925 -6.502723 -6.142434 -1.915195 -11.321197 35.101168 -4.479904 15.454047 2.838900 -0.153500 2.524200 -6.956700 -0.667966 4.862879 -2.076263 -1.832232 2.535086 1.600870 4.281851 -9.133895 0.236703 8.396900 -1.914300 -2.648900 -58.477439 -17.932238 2.354576 25.538480 -37.464657 -14.529387 0.343507 -3.157470 -30.854094 -7.125000 0.000000 0.000000 80.214587 14.827474 33.296609 -29.002850 40.718867 -14.058616 0.423120 -0.955910 -17.308459 7.125000 0.000000 0.000000 
-27.723861 16.591147 -1.306016 4.735713 8.799370 19.742751 -7.836538 2.206417 -52.731937 11.452003 21.064189 65.289337 0.933101 -3.210792 5.288297 1.359900 -7.381300 -20.850200 15.892960 -6.349425 -4.097201 -1.101714 -10.231364 32.164455 -4.269800 15.065387 6.791995 -0.240600 3.156700 -8.715200 -0.748817 5.265558 -2.111876 -2.099176 2.809305 1.583372 4.310776 -9.854758 0.657321 8.497100 -2.337100 -2.285200 -59.415718 -15.439532 1.511385 28.559529 -39.786280 -16.896504 0.486098 -2.997496 -34.547920 -7.125000 0.000000 0.000000 80.981112 12.871464 32.852141 -29.736683 41.469804 -14.608575 0.369308 -0.961822 -15.236516 7.125000 0.000000 0.000000 
-27.626160 16.596372 -0.798310 4.627182 8.739584 20.120655 -6.663710 0.056338 -53.101569 9.716145 20.602840 60.490957 0.993444 -3.081472 6.808112 1.901300 -8.657400 -24.729400 15.541455 -6.042916 -1.788086 -0.331806 -9.066760 29.106258 -4.034277 14.233081 10.572705 -0.355200 3.828800 -10.595400 -0.767034 5.579428 -2.152042 -1.745070 2.972904 1.390146 4.520709 -10.420435 0.933035 8.774600 -2.635900 -2.122000 -60.813858 -12.652074 -0.159965 31.547715 -41.874010 -19.488793 0.743871 -2.770033 -36.984000 -7.125000 0.000000 0.000000 81.100750 10.646338 33.278190 -30.646251 42.296621 -15.233705 0.358846 -0.925619 -14.720503 7.125000 0.000000 0.000000 
